#!OML:ASF F:\VICON\USERDATA\INSTALL\rory3\rory3.ASF
:FULLY-SPECIFIED
:DEGREES
482
root 0.797572 16.4409 -25.3251 -155.722 -21.6142 -187.157
lowerback -10.289 -3.16416 -2.11179
upperback -8.10696 -4.8565 2.14944
thorax -2.35947 -2.65414 3.02594
lowerneck -21.6523 -3.26748 -3.67531
upperneck 28.2501 -4.24895 -0.35351
head 13.1717 -2.66346 -0.34225
rclavicle 1.78906e-015 6.83819e-014
rhumerus -357.252 36.9405 325.27
rradius 31.9901
rwrist 22.2593
rhand -22.6046 402.503
rfingers 7.12502
rthumb 3.8249 12.5571
lclavicle 1.78906e-015 6.83819e-014
lhumerus 36.4788 -60.1492 8.05368
lradius 53.5496
lwrist -44.3142
lhand -30.837 -3.9238
lfingers 7.12502
lthumb -4.1257 26.016
rfemur 118.149 -187.45 -182.28
rtibia 40.6117
rfoot -41.8591 27.392
rtoes 56.6036
lfemur -14.4135 -7.26102 -28.1615
ltibia 29.7687
lfoot -16.7985 3.90394
ltoes -25.9007
483
root 0.801278 16.5687 -25.6139 -155.012 -23.6053 -188.036
lowerback -9.28401 -3.48118 -1.55222
upperback -9.7049 -5.55515 1.86301
thorax -4.64452 -3.08328 2.54903
lowerneck -20.495 -3.54846 -4.36025
upperneck 26.801 -4.32354 -0.434854
head 12.3687 -2.7472 -0.214697
rclavicle 3.92351e-014 3.18055e-014
rhumerus -361.321 34.9206 324.895
rradius 30.0771
rwrist 23.7703
rhand -22.0864 400.745
rfingers 7.12502
rthumb 4.32535 10.8095
lclavicle 3.92351e-014 3.18055e-014
lhumerus 32.3532 -62.2632 9.16597
lradius 51.133
lwrist -43.4791
lhand -31.4025 -0.902159
lfingers 7.12502
lthumb -4.67181 29.0263
rfemur 119.043 -192.299 -186.7
rtibia 40.7226
rfoot -41.6672 34.0725
rtoes 56.9703
lfemur -13.2734 -6.51392 -27.0851
ltibia 28.0325
lfoot -11.7601 -1.20024
ltoes -21.9094
484
root 0.816288 16.6777 -25.8819 -153.399 -24.9747 -188.973
lowerback -10.551 -4.01843 -1.76492
upperback -10.2243 -6.3643 1.9495
thorax -4.44619 -3.53096 2.62679
lowerneck -20.6985 -3.67581 -4.54025
upperneck 24.3042 -3.99303 -0.933077
head 11.4285 -2.56354 -0.260012
rclavicle -4.47266e-015 -2.38542e-014
rhumerus -362.582 31.4818 326.245
rradius 27.9448
rwrist 25.8954
rhand -21.4939 399.369
rfingers 7.12502
rthumb 4.8975 9.44526
lclavicle -4.47266e-015 -2.38542e-014
lhumerus 27.5753 -62.1391 11.0986
lradius 48.5523
lwrist -41.6976
lhand -31.7322 0.629776
lfingers 7.12502
lthumb -4.99011 30.551
rfemur 119.324 -193.327 -188.001
rtibia 40.9626
rfoot -40.025 37.5648
rtoes 56.4166
lfemur -13.231 -5.55996 -26.0099
ltibia 26.0811
lfoot -4.65663 -5.11582
ltoes -13.6168
485
root 0.796076 16.8148 -26.1135 -152.748 -27.4819 -189.277
lowerback -10.5277 -4.50871 -0.0188538
upperback -10.8984 -7.24315 1.75506
thorax -5.36877 -4.11896 1.47847
lowerneck -20.9553 -3.56444 -4.56093
upperneck 22.1549 -3.57302 -1.10763
head 10.6654 -2.30296 -0.213436
rclavicle -3.08613e-014 -2.38542e-014
rhumerus -364.561 27.8619 327.228
rradius 25.7735
rwrist 28.4815
rhand -21.63 398.395
rfingers 7.12502
rthumb 4.76607 8.46842
lclavicle -3.08613e-014 -2.38542e-014
lhumerus 23.3379 -62.3293 12.3905
lradius 46.4431
lwrist -39.219
lhand -30.2814 0.820536
lfingers 7.12502
lthumb -3.58923 30.7701
rfemur 120.877 -193.977 -188.001
rtibia 40.876
rfoot -38.6537 40.5752
rtoes 56.2567
lfemur -12.7187 -5.25614 -23.8818
ltibia 24.7469
lfoot 5.38844 -5.21434
ltoes 11.4805
486
root 0.867516 16.9092 -26.4065 -150.521 -27.1199 -191.644
lowerback -11.4043 -4.90522 -2.60385
upperback -11.6025 -7.79517 1.28031
thorax -5.42211 -4.32152 2.31561
lowerneck -20.7623 -3.63797 -4.59311
upperneck 18.9433 -3.45044 -1.40545
head 9.47102 -2.17693 -0.235561
rclavicle -8.39865e-014 -4.6118e-014
rhumerus -366.255 24.1653 328.603
rradius 23.6804
rwrist 31.0428
rhand -22.5323 397.257
rfingers 7.12502
rthumb 3.8947 7.3129
lclavicle -8.39865e-014 -4.6118e-014
lhumerus 19.789 -62.6178 12.8202
lradius 44.4637
lwrist -36.8461
lhand -28.4855 1.1231
lfingers 7.12502
lthumb -1.85485 31.0948
rfemur 120.388 -195.553 -191.433
rtibia 40.6729
rfoot -40.9935 40.8035
rtoes 57.7009
lfemur -13.1377 -4.01433 -24.3416
ltibia 24.0337
lfoot 11.4231 2.88751
ltoes 27.4417
